<?xml version="1.0" encoding="utf-8"?><svg version="1.1" xmlns="http://www.w3.org/2000/svg" xmlns:xlink="http://www.w3.org/1999/xlink" x="0px" y="0px" viewBox="0 0 640 480" enable-background="new 0 0 640 480" xml:space="preserve"><g id="Capa_1"><text transform="matrix(1 0 0 1 39.0031 80.439)" fill="#707876" font-family="'Oxygen-Regular'" font-size="66.8738">Infografía</text><rect x="408.3" y="120.3" fill="#707876" width="200.7" height="296"/></g><g id="info_x5F_gris"><path fill="#707876" d="M320.3,200.4c-26.7-49.3-79-82.8-139-82.8c-21.8,0-42.6,4.4-61.5,12.4l61.5,146L320.3,200.4z"/></g><g id="info_x5F_verde"><path fill="#AAB6A3" d="M320.3,200.4l-139,75.6l-48.7,150c15.3,5,31.7,7.7,48.7,7.7c87.3,0,158-70.7,158-158 C339.3,248.4,332.5,222.8,320.3,200.4z"/></g><g id="info_x5F_rosa"><path fill="#AA78A3" d="M119.8,130c-23.9,10.1-44.9,26-61.1,45.8c-22.2,27.2-35.5,61.9-35.5,99.8c0,70.3,45.9,129.8,109.3,150.4 l48.7-150L119.8,130z"/></g></svg>
